<svg width="64" height="64" viewBox="0 0 64 64" fill="none" xmlns="http://www.w3.org/2000/svg">
<g clip-path="url(#clip0_203_8)">
<path d="M27.2 58.6H39.5V64H27.2V58.6Z" fill="#414141"/>
<path d="M49 55.8C49 57.2 47.8 58.5 46.3 58.5H19.1C17.6 58.5 16.4 57.2 16.4 55.8V36.8C16.4 35.4 17.6 34.1 19.1 34.1H46.3C47.8 34.1 49 35.4 49 36.8V55.8Z" fill="black"/>
<path d="M17.7 35.4C27.4754 35.4 35.4 27.4754 35.4 17.7C35.4 7.92456 27.4754 0 17.7 0C7.92456 0 0 7.92456 0 17.7C0 27.4754 7.92456 35.4 17.7 35.4Z" fill="black"/>
<path d="M11.4 12.8C13.6644 12.8 15.5 10.9644 15.5 8.70001C15.5 6.43564 13.6644 4.60001 11.4 4.60001C9.13562 4.60001 7.29999 6.43564 7.29999 8.70001C7.29999 10.9644 9.13562 12.8 11.4 12.8Z" fill="#4F4F4F"/>
<path d="M24 12.8C26.2643 12.8 28.1 10.9644 28.1 8.70001C28.1 6.43564 26.2643 4.60001 24 4.60001C21.7356 4.60001 19.9 6.43564 19.9 8.70001C19.9 10.9644 21.7356 12.8 24 12.8Z" fill="#4F4F4F"/>
<path d="M28 24.4C30.2643 24.4 32.1 22.5644 32.1 20.3C32.1 18.0356 30.2643 16.2 28 16.2C25.7356 16.2 23.9 18.0356 23.9 20.3C23.9 22.5644 25.7356 24.4 28 24.4Z" fill="#4F4F4F"/>
<path d="M17.7 32.5C19.9643 32.5 21.8 30.6644 21.8 28.4C21.8 26.1357 19.9643 24.3 17.7 24.3C15.4356 24.3 13.6 26.1357 13.6 28.4C13.6 30.6644 15.4356 32.5 17.7 32.5Z" fill="#4F4F4F"/>
<path d="M7.39999 24.4C9.66436 24.4 11.5 22.5644 11.5 20.3C11.5 18.0356 9.66436 16.2 7.39999 16.2C5.13562 16.2 3.29999 18.0356 3.29999 20.3C3.29999 22.5644 5.13562 24.4 7.39999 24.4Z" fill="#4F4F4F"/>
<path d="M16.2 16.4C16.7523 16.4 17.2 15.9523 17.2 15.4C17.2 14.8477 16.7523 14.4 16.2 14.4C15.6477 14.4 15.2 14.8477 15.2 15.4C15.2 15.9523 15.6477 16.4 16.2 16.4Z" fill="#4F4F4F"/>
<path d="M19.3 16.4C19.8523 16.4 20.3 15.9523 20.3 15.4C20.3 14.8477 19.8523 14.4 19.3 14.4C18.7477 14.4 18.3 14.8477 18.3 15.4C18.3 15.9523 18.7477 16.4 19.3 16.4Z" fill="#4F4F4F"/>
<path d="M20.3 19.3C20.8523 19.3 21.3 18.8523 21.3 18.3C21.3 17.7477 20.8523 17.3 20.3 17.3C19.7477 17.3 19.3 17.7477 19.3 18.3C19.3 18.8523 19.7477 19.3 20.3 19.3Z" fill="#4F4F4F"/>
<path d="M17.7 21.3C18.2523 21.3 18.7 20.8523 18.7 20.3C18.7 19.7477 18.2523 19.3 17.7 19.3C17.1477 19.3 16.7 19.7477 16.7 20.3C16.7 20.8523 17.1477 21.3 17.7 21.3Z" fill="#4F4F4F"/>
<path d="M15.1 19.3C15.6523 19.3 16.1 18.8523 16.1 18.3C16.1 17.7477 15.6523 17.3 15.1 17.3C14.5477 17.3 14.1 17.7477 14.1 18.3C14.1 18.8523 14.5477 19.3 15.1 19.3Z" fill="#4F4F4F"/>
<path d="M49 35.4C57.2843 35.4 64 28.6843 64 20.4C64 12.1157 57.2843 5.39999 49 5.39999C40.7157 5.39999 34 12.1157 34 20.4C34 28.6843 40.7157 35.4 49 35.4Z" fill="black"/>
<path d="M43.7001 16.3C45.5778 16.3 47.1 14.7778 47.1 12.9C47.1 11.0222 45.5778 9.5 43.7001 9.5C41.8223 9.5 40.3 11.0222 40.3 12.9C40.3 14.7778 41.8223 16.3 43.7001 16.3Z" fill="#4F4F4F"/>
<path d="M54.3 16.2C56.1778 16.2 57.7 14.6778 57.7 12.8C57.7 10.9222 56.1778 9.39999 54.3 9.39999C52.4223 9.39999 50.9 10.9222 50.9 12.8C50.9 14.6778 52.4223 16.2 54.3 16.2Z" fill="#4F4F4F"/>
<path d="M57.8 26C59.6778 26 61.2 24.4777 61.2 22.6C61.2 20.7222 59.6778 19.2 57.8 19.2C55.9223 19.2 54.4 20.7222 54.4 22.6C54.4 24.4777 55.9223 26 57.8 26Z" fill="#4F4F4F"/>
<path d="M49 32.9C50.8778 32.9 52.4 31.3778 52.4 29.5C52.4 27.6222 50.8778 26.1 49 26.1C47.1223 26.1 45.6 27.6222 45.6 29.5C45.6 31.3778 47.1223 32.9 49 32.9Z" fill="#4F4F4F"/>
<path d="M40.3 26C42.1778 26 43.7 24.4777 43.7 22.6C43.7 20.7222 42.1778 19.2 40.3 19.2C38.4223 19.2 36.9 20.7222 36.9 22.6C36.9 24.4777 38.4223 26 40.3 26Z" fill="#4F4F4F"/>
<path d="M47.7001 19.4C48.1971 19.4 48.6 18.9971 48.6 18.5C48.6 18.0029 48.1971 17.6 47.7001 17.6C47.203 17.6 46.8 18.0029 46.8 18.5C46.8 18.9971 47.203 19.4 47.7001 19.4Z" fill="#4F4F4F"/>
<path d="M50.4 19.4C50.8971 19.4 51.3 18.9971 51.3 18.5C51.3 18.0029 50.8971 17.6 50.4 17.6C49.9029 17.6 49.5 18.0029 49.5 18.5C49.5 18.9971 49.9029 19.4 50.4 19.4Z" fill="#4F4F4F"/>
<path d="M51.2001 21.8C51.6971 21.8 52.1 21.3971 52.1 20.9C52.1 20.4029 51.6971 20 51.2001 20C50.703 20 50.3 20.4029 50.3 20.9C50.3 21.3971 50.703 21.8 51.2001 21.8Z" fill="#4F4F4F"/>
<path d="M49 23.6C49.4971 23.6 49.9 23.197 49.9 22.7C49.9 22.2029 49.4971 21.8 49 21.8C48.503 21.8 48.1 22.2029 48.1 22.7C48.1 23.197 48.503 23.6 49 23.6Z" fill="#4F4F4F"/>
<path d="M46.9 21.8C47.3971 21.8 47.8 21.3971 47.8 20.9C47.8 20.4029 47.3971 20 46.9 20C46.4029 20 46 20.4029 46 20.9C46 21.3971 46.4029 21.8 46.9 21.8Z" fill="#4F4F4F"/>
<path d="M6.79999 40.9V61.3L17.7 55.8V46.3L6.79999 40.9ZM55.8 35.4V44.9L49 43.6V36.8L55.8 35.4Z" fill="black"/>
</g>
<defs>
<clipPath id="clip0_203_8">
<rect width="64" height="64" fill="white"/>
</clipPath>
</defs>
</svg>
