<svg width="32" height="32" viewBox="0 0 32 32" fill="none" xmlns="http://www.w3.org/2000/svg">
<path d="M6.5 4C5.30653 4 4.16193 4.47411 3.31802 5.31802C2.47411 6.16193 2 7.30653 2 8.5V23.5C2 24.6935 2.47411 25.8381 3.31802 26.682C4.16193 27.5259 5.30653 28 6.5 28H25.5C26.6935 28 27.8381 27.5259 28.682 26.682C29.5259 25.8381 30 24.6935 30 23.5V8.5C30 7.30653 29.5259 6.16193 28.682 5.31802C27.8381 4.47411 26.6935 4 25.5 4H6.5ZM4 8.5C4 7.83696 4.26339 7.20107 4.73223 6.73223C5.20107 6.26339 5.83696 6 6.5 6H25.5C26.163 6 26.7989 6.26339 27.2678 6.73223C27.7366 7.20107 28 7.83696 28 8.5V23.5C28 24.163 27.7366 24.7989 27.2678 25.2678C26.7989 25.7366 26.163 26 25.5 26H6.5C5.83696 26 5.20107 25.7366 4.73223 25.2678C4.26339 24.7989 4 24.163 4 23.5V8.5ZM25 8C24.7348 8 24.4804 8.10536 24.2929 8.29289C24.1054 8.48043 24 8.73478 24 9V11C24 11.2652 24.1054 11.5196 24.2929 11.7071C24.4804 11.8946 24.7348 12 25 12C25.2652 12 25.5196 11.8946 25.7071 11.7071C25.8946 11.5196 26 11.2652 26 11V9C26 8.73478 25.8946 8.48043 25.7071 8.29289C25.5196 8.10536 25.2652 8 25 8ZM24 15C24 14.7348 24.1054 14.4804 24.2929 14.2929C24.4804 14.1054 24.7348 14 25 14C25.2652 14 25.5196 14.1054 25.7071 14.2929C25.8946 14.4804 26 14.7348 26 15V17C26 17.2652 25.8946 17.5196 25.7071 17.7071C25.5196 17.8946 25.2652 18 25 18C24.7348 18 24.4804 17.8946 24.2929 17.7071C24.1054 17.5196 24 17.2652 24 17V15ZM25 20C24.7348 20 24.4804 20.1054 24.2929 20.2929C24.1054 20.4804 24 20.7348 24 21V23C24 23.2652 24.1054 23.5196 24.2929 23.7071C24.4804 23.8946 24.7348 24 25 24C25.2652 24 25.5196 23.8946 25.7071 23.7071C25.8946 23.5196 26 23.2652 26 23V21C26 20.7348 25.8946 20.4804 25.7071 20.2929C25.5196 20.1054 25.2652 20 25 20ZM6 9C6 8.73478 6.10536 8.48043 6.29289 8.29289C6.48043 8.10536 6.73478 8 7 8C7.26522 8 7.51957 8.10536 7.70711 8.29289C7.89464 8.48043 8 8.73478 8 9V11C8 11.2652 7.89464 11.5196 7.70711 11.7071C7.51957 11.8946 7.26522 12 7 12C6.73478 12 6.48043 11.8946 6.29289 11.7071C6.10536 11.5196 6 11.2652 6 11V9ZM7 14C6.73478 14 6.48043 14.1054 6.29289 14.2929C6.10536 14.4804 6 14.7348 6 15V17C6 17.2652 6.10536 17.5196 6.29289 17.7071C6.48043 17.8946 6.73478 18 7 18C7.26522 18 7.51957 17.8946 7.70711 17.7071C7.89464 17.5196 8 17.2652 8 17V15C8 14.7348 7.89464 14.4804 7.70711 14.2929C7.51957 14.1054 7.26522 14 7 14ZM6 21C6 20.7348 6.10536 20.4804 6.29289 20.2929C6.48043 20.1054 6.73478 20 7 20C7.26522 20 7.51957 20.1054 7.70711 20.2929C7.89464 20.4804 8 20.7348 8 21V23C8 23.2652 7.89464 23.5196 7.70711 23.7071C7.51957 23.8946 7.26522 24 7 24C6.73478 24 6.48043 23.8946 6.29289 23.7071C6.10536 23.5196 6 23.2652 6 23V21ZM13 13.05C13 12.24 13.878 11.737 14.576 12.145L20.176 15.417C20.3111 15.4958 20.4231 15.6087 20.501 15.7443C20.5789 15.8799 20.6199 16.0336 20.6199 16.19C20.6199 16.3464 20.5789 16.5001 20.501 16.6357C20.4231 16.7713 20.3111 16.8842 20.176 16.963L14.576 20.235C14.4168 20.3278 14.236 20.3771 14.0518 20.3777C13.8675 20.3784 13.6864 20.3305 13.5266 20.2388C13.3667 20.1471 13.2339 20.0149 13.1415 19.8556C13.049 19.6962 13.0002 19.5152 13 19.331V13.049V13.05Z" fill="black"/>
</svg>
