<svg width="24" height="24" viewBox="0 0 24 24" fill="none" xmlns="http://www.w3.org/2000/svg">
<path d="M14.75 5.45999L12 1.92999L13.97 1.53999L16.71 5.06999L14.75 5.45999ZM21.62 4.09999L20.84 0.179993L16.91 0.959993L19.65 4.49999L21.62 4.09999ZM11.81 6.04999L9.07002 2.49999L7.10002 2.90999L9.85002 6.43999L11.81 6.04999ZM2.00002 7.99999V18C2.00002 18.5304 2.21073 19.0391 2.5858 19.4142C2.96088 19.7893 3.46958 20 4.00002 20H20C21.11 20 22 19.11 22 18V7.99999H2.00002ZM4.16002 3.49999L3.18002 3.68999C2.66144 3.79575 2.20559 4.10195 1.91159 4.54202C1.61758 4.98209 1.5092 5.52044 1.61002 6.03999L2.00002 7.99999L6.90002 7.02999L4.16002 3.49999ZM11 24H13V22H11V24ZM7.00002 24H9.00002V22H7.00002V24ZM15 24H17V22H15V24Z" fill="black"/>
</svg>
