<svg width="169" height="134" viewBox="0 0 169 134" fill="none" xmlns="http://www.w3.org/2000/svg">
<path d="M91.5416 106.083C91.5416 107.982 91.8233 109.824 92.1754 111.667H28.1666C24.4315 111.667 20.8494 110.49 18.2082 108.396C15.5671 106.302 14.0833 103.462 14.0833 100.5V33.5C14.0833 30.5384 15.5671 27.6981 18.2082 25.604C20.8494 23.5098 24.4315 22.3333 28.1666 22.3333H35.2083L49.2916 44.6666H70.4166L56.3333 22.3333H70.4166L84.5 44.6666H105.625L91.5416 22.3333H105.625L119.708 44.6666H140.833L126.75 22.3333H154.917V77.1058C148.72 74.2583 141.537 72.5833 133.792 72.5833C110.484 72.5833 91.5416 87.6025 91.5416 106.083ZM150.269 88.44L124.99 108.484L113.793 99.6066L105.625 106.083L124.99 122.833L158.437 96.3125L150.269 88.44Z" fill="black"/>
</svg>
