<svg width="256" height="256" viewBox="0 0 256 256" fill="none" xmlns="http://www.w3.org/2000/svg">
<path d="M224 216H183.36C204.553 202.648 220.212 182.092 227.456 158.114C234.701 134.135 233.043 108.348 222.789 85.4944C212.534 62.641 194.372 44.259 171.644 33.7298C148.916 23.2006 123.15 21.2323 99.0867 28.1872C75.023 35.142 54.2798 50.5521 40.673 71.5828C27.0663 92.6134 21.511 117.85 25.0292 142.65C28.5475 167.451 40.9025 190.147 59.8216 206.563C78.7407 222.979 102.951 232.012 128 232H224C226.122 232 228.157 231.157 229.657 229.657C231.157 228.157 232 226.122 232 224C232 221.878 231.157 219.843 229.657 218.343C228.157 216.843 226.122 216 224 216ZM40 128C40 110.595 45.1611 93.5813 54.8307 79.1098C64.5002 64.6383 78.244 53.3591 94.3239 46.6986C110.404 40.0381 128.098 38.2954 145.168 41.6909C162.238 45.0864 177.918 53.4676 190.225 65.7746C202.532 78.0816 210.914 93.7617 214.309 110.832C217.705 127.902 215.962 145.596 209.301 161.676C202.641 177.756 191.362 191.5 176.89 201.169C162.419 210.839 145.405 216 128 216C104.669 215.974 82.3013 206.694 65.8038 190.196C49.3064 173.699 40.0265 151.331 40 128ZM128 104C132.747 104 137.387 102.592 141.334 99.9552C145.28 97.3181 148.357 93.5698 150.173 89.1844C151.99 84.7989 152.465 79.9734 151.539 75.3178C150.613 70.6623 148.327 66.3859 144.971 63.0294C141.614 59.673 137.338 57.3872 132.682 56.4611C128.027 55.5351 123.201 56.0104 118.816 57.8269C114.43 59.6434 110.682 62.7195 108.045 66.6663C105.408 70.6131 104 75.2532 104 80C104 86.3652 106.529 92.4697 111.029 96.9705C115.53 101.471 121.635 104 128 104ZM128 72C129.582 72 131.129 72.4692 132.445 73.3482C133.76 74.2273 134.786 75.4767 135.391 76.9385C135.997 78.4003 136.155 80.0088 135.846 81.5607C135.538 83.1125 134.776 84.538 133.657 85.6568C132.538 86.7756 131.113 87.5376 129.561 87.8463C128.009 88.1549 126.4 87.9965 124.939 87.391C123.477 86.7855 122.227 85.7601 121.348 84.4445C120.469 83.1289 120 81.5822 120 80C120 77.8782 120.843 75.8434 122.343 74.3431C123.843 72.8428 125.878 72 128 72ZM152 176C152 171.253 150.592 166.613 147.955 162.666C145.318 158.72 141.57 155.643 137.184 153.827C132.799 152.01 127.973 151.535 123.318 152.461C118.662 153.387 114.386 155.673 111.029 159.029C107.673 162.386 105.387 166.662 104.461 171.318C103.535 175.973 104.01 180.799 105.827 185.184C107.643 189.57 110.72 193.318 114.666 195.955C118.613 198.592 123.253 200 128 200C134.365 200 140.47 197.471 144.971 192.971C149.471 188.47 152 182.365 152 176ZM120 176C120 174.418 120.469 172.871 121.348 171.555C122.227 170.24 123.477 169.214 124.939 168.609C126.4 168.003 128.009 167.845 129.561 168.154C131.113 168.462 132.538 169.224 133.657 170.343C134.776 171.462 135.538 172.887 135.846 174.439C136.155 175.991 135.997 177.6 135.391 179.061C134.786 180.523 133.76 181.773 132.445 182.652C131.129 183.531 129.582 184 128 184C125.878 184 123.843 183.157 122.343 181.657C120.843 180.157 120 178.122 120 176ZM176 152C180.747 152 185.387 150.592 189.334 147.955C193.28 145.318 196.357 141.57 198.173 137.184C199.99 132.799 200.465 127.973 199.539 123.318C198.613 118.662 196.327 114.386 192.971 111.029C189.614 107.673 185.338 105.387 180.682 104.461C176.027 103.535 171.201 104.01 166.816 105.827C162.43 107.643 158.682 110.72 156.045 114.666C153.408 118.613 152 123.253 152 128C152 134.365 154.529 140.47 159.029 144.971C163.53 149.471 169.635 152 176 152ZM176 120C177.582 120 179.129 120.469 180.445 121.348C181.76 122.227 182.786 123.477 183.391 124.938C183.997 126.4 184.155 128.009 183.846 129.561C183.538 131.113 182.776 132.538 181.657 133.657C180.538 134.776 179.113 135.538 177.561 135.846C176.009 136.155 174.4 135.997 172.939 135.391C171.477 134.786 170.227 133.76 169.348 132.445C168.469 131.129 168 129.582 168 128C168 125.878 168.843 123.843 170.343 122.343C171.843 120.843 173.878 120 176 120ZM80 104C75.2532 104 70.6131 105.408 66.6663 108.045C62.7195 110.682 59.6434 114.43 57.8269 118.816C56.0104 123.201 55.5351 128.027 56.4611 132.682C57.3872 137.338 59.673 141.614 63.0294 144.971C66.3859 148.327 70.6623 150.613 75.3178 151.539C79.9734 152.465 84.799 151.99 89.1844 150.173C93.5698 148.357 97.3181 145.28 99.9553 141.334C102.592 137.387 104 132.747 104 128C104 121.635 101.471 115.53 96.9706 111.029C92.4697 106.529 86.3652 104 80 104ZM80 136C78.4177 136 76.871 135.531 75.5554 134.652C74.2398 133.773 73.2145 132.523 72.609 131.061C72.0035 129.6 71.845 127.991 72.1537 126.439C72.4624 124.887 73.2243 123.462 74.3431 122.343C75.462 121.224 76.8874 120.462 78.4393 120.154C79.9911 119.845 81.5997 120.003 83.0615 120.609C84.5233 121.214 85.7727 122.24 86.6517 123.555C87.5308 124.871 88 126.418 88 128C88 130.122 87.1571 132.157 85.6568 133.657C84.1566 135.157 82.1217 136 80 136Z" fill="black"/>
</svg>
