<svg width="29" height="28" viewBox="0 0 29 28" fill="none" xmlns="http://www.w3.org/2000/svg">
<path d="M9.06252 2.3333C6.8996 3.67497 5.43752 6.0433 5.43752 8.74997C5.43752 11.4566 6.8996 13.825 9.09877 15.1666C5.38919 15.1666 2.41669 12.2966 2.41669 8.74997C2.41669 7.04816 3.11687 5.41606 4.36321 4.2127C5.60954 3.00934 7.29994 2.3333 9.06252 2.3333ZM23.0429 4.0833L24.7709 5.75163L5.9571 23.9166L4.22919 22.2483L23.0429 4.0833ZM15.5754 6.9183L13.7871 5.8333L12.0471 6.99997L12.5546 5.01663L10.875 3.77997L12.9896 3.63997L13.6904 1.71497L14.5 3.61663L16.5904 3.65163L14.9592 4.96997L15.5754 6.9183ZM11.5879 11.13L10.1863 10.2783L8.83294 11.1883L9.24377 9.6483L7.92669 8.67997L9.57002 8.57497L10.1138 7.06997L10.73 8.55163L12.3734 8.58663L11.1046 9.60163L11.5879 11.13ZM22.9584 15.75C22.9584 17.4518 22.2582 19.0839 21.0118 20.2872C19.7655 21.4906 18.0751 22.1666 16.3125 22.1666C14.8384 22.1666 13.4729 21.7 12.3734 20.9183L21.6654 11.9466C22.475 13.0083 22.9584 14.3266 22.9584 15.75ZM17.6417 23.4266L20.9888 22.085L20.6988 25.9933L17.6417 23.4266ZM22.8738 20.2766L24.2634 17.045L26.9217 20.0083L22.8738 20.2766ZM24.2634 14.49L22.8859 11.2466L26.9217 11.5266L24.2634 14.49ZM11.6363 22.085L14.9834 23.4266L11.9263 25.9816L11.6363 22.085Z" fill="white"/>
</svg>
