<svg width="20" height="20" viewBox="0 0 20 20" fill="none" xmlns="http://www.w3.org/2000/svg">
<path d="M7.17192 14.243C6.98428 14.4307 6.72979 14.5361 6.46442 14.5361C6.19906 14.5361 5.94456 14.4307 5.75692 14.243C5.56928 14.0554 5.46387 13.8009 5.46387 13.5355C5.46387 13.4042 5.48975 13.274 5.54003 13.1527C5.59031 13.0313 5.66401 12.921 5.75692 12.828L12.8279 5.75805C12.9208 5.66514 13.031 5.59142 13.1523 5.54111C13.2737 5.49081 13.4037 5.46489 13.5351 5.46484C13.6664 5.4648 13.7965 5.49062 13.9179 5.54084C14.0392 5.59107 14.1495 5.6647 14.2424 5.75755C14.3353 5.85039 14.409 5.96063 14.4594 6.08196C14.5097 6.20329 14.5356 6.33334 14.5356 6.46469C14.5357 6.59604 14.5098 6.72611 14.4596 6.84748C14.4094 6.96885 14.3358 7.07914 14.2429 7.17205L7.17192 14.242V14.243Z" fill="white"/>
<path d="M5.75692 7.17205C5.56928 6.9844 5.46387 6.72991 5.46387 6.46455C5.46387 6.19918 5.56928 5.94469 5.75692 5.75705C5.94456 5.5694 6.19906 5.46399 6.46442 5.46399C6.72979 5.46399 6.98428 5.5694 7.17192 5.75705L14.2419 12.828C14.3348 12.9209 14.4085 13.0311 14.4589 13.1525C14.5092 13.2738 14.5351 13.4038 14.5351 13.5352C14.5352 13.6665 14.5093 13.7966 14.4591 13.918C14.4089 14.0393 14.3353 14.1496 14.2424 14.2425C14.1496 14.3355 14.0393 14.4092 13.918 14.4595C13.7967 14.5098 13.6666 14.5357 13.5353 14.5357C13.4039 14.5358 13.2739 14.51 13.1525 14.4597C13.0311 14.4095 12.9208 14.3359 12.8279 14.243L5.75692 7.17205Z" fill="white"/>
</svg>
