<svg width="24" height="24" viewBox="0 0 24 24" fill="none" xmlns="http://www.w3.org/2000/svg">
<path d="M16.854 13.647L12.354 9.147C12.2602 9.05327 12.1331 9.00061 12.0005 9.00061C11.8679 9.00061 11.7408 9.05327 11.647 9.147L7.14701 13.647C7.05593 13.7413 7.00553 13.8676 7.00667 13.9987C7.00781 14.1298 7.0604 14.2552 7.1531 14.3479C7.2458 14.4406 7.37121 14.4932 7.50231 14.4943C7.63341 14.4955 7.75971 14.4451 7.85401 14.354L12 10.207L16.146 14.354C16.1923 14.4007 16.2474 14.4377 16.308 14.463C16.3687 14.4882 16.4338 14.5012 16.4995 14.5012C16.5652 14.5012 16.6303 14.4882 16.691 14.463C16.7516 14.4377 16.8067 14.4007 16.853 14.354C16.9467 14.2602 16.9994 14.1331 16.9994 14.0005C16.9994 13.8679 16.9477 13.7408 16.854 13.647Z" fill="white"/>
</svg>
