<svg width="79" height="67" viewBox="0 0 79 67" fill="none" xmlns="http://www.w3.org/2000/svg">
<path d="M24.6875 26.5209C22.505 26.5209 20.4118 27.2562 18.8686 28.565C17.3253 29.8739 16.4583 31.6491 16.4583 33.5C16.4583 35.351 17.3253 37.1262 18.8686 38.4351C20.4118 39.7439 22.505 40.4792 24.6875 40.4792C26.87 40.4792 28.9631 39.7439 30.5064 38.4351C32.0496 37.1262 32.9166 35.351 32.9166 33.5C32.9166 31.6491 32.0496 29.8739 30.5064 28.565C28.9631 27.2562 26.87 26.5209 24.6875 26.5209ZM24.6875 37.6875C23.378 37.6875 22.1221 37.2464 21.1961 36.4611C20.2702 35.6757 19.75 34.6106 19.75 33.5C19.75 32.3894 20.2702 31.3243 21.1961 30.539C22.1221 29.7537 23.378 29.3125 24.6875 29.3125C25.997 29.3125 27.2529 29.7537 28.1788 30.539C29.1048 31.3243 29.625 32.3894 29.625 33.5C29.625 34.6106 29.1048 35.6757 28.1788 36.4611C27.2529 37.2464 25.997 37.6875 24.6875 37.6875ZM54.3125 18.1459H24.6875C19.886 18.1459 15.2811 19.7635 11.8859 22.643C8.49071 25.5225 6.58331 29.4279 6.58331 33.5C6.58331 37.5722 8.49071 41.4776 11.8859 44.3571C15.2811 47.2365 19.886 48.8542 24.6875 48.8542H54.3125C59.114 48.8542 63.7189 47.2365 67.1141 44.3571C70.5093 41.4776 72.4166 37.5722 72.4166 33.5C72.4166 29.4279 70.5093 25.5225 67.1141 22.643C63.7189 19.7635 59.114 18.1459 54.3125 18.1459ZM54.3125 46.0625H24.6875C20.759 46.0625 16.9913 44.739 14.2135 42.3831C11.4356 40.0271 9.87498 36.8318 9.87498 33.5C9.87498 30.1683 11.4356 26.9729 14.2135 24.617C16.9913 22.2611 20.759 20.9375 24.6875 20.9375H54.3125C58.241 20.9375 62.0086 22.2611 64.7865 24.617C67.5644 26.9729 69.125 30.1683 69.125 33.5C69.125 36.8318 67.5644 40.0271 64.7865 42.3831C62.0086 44.739 58.241 46.0625 54.3125 46.0625Z" fill="white"/>
</svg>
